<?xml version="1.0" encoding="UTF-8"?>
<!-- Generated by Pixelmator Pro 3.8 -->
<svg width="1024" height="1024" viewBox="0 0 1024 1024" xmlns="http://www.w3.org/2000/svg">
    <path id="Brezel" fill="#000000" fill-rule="evenodd" stroke="none" d="M 853.333313 766.069397 L 888.796265 794.7771 C 900.184082 804.199341 907.324707 817.789368 908.623901 832.512573 C 909.922974 847.23584 905.272278 861.86615 895.710266 873.136963 C 875.683167 896.677185 840.448181 899.732788 816.667725 879.991394 L 754.108521 825.604248 C 601.204712 899.692078 422.795288 899.692078 269.891479 825.604248 L 207.332245 879.979492 C 183.551849 899.720825 148.316864 896.665344 128.289734 873.125 C 118.727715 861.854248 114.077034 847.223938 115.376091 832.500732 C 116.67527 817.777466 123.815895 804.1875 135.203735 794.765259 L 170.666672 766.069397 C 65.488373 682.474426 3e-06 560.24939 3e-06 424.736084 L 3e-06 424.736084 C -0.01756 303.12146 74.92466 194.077515 188.467178 150.50885 C 302.009705 106.940247 430.659515 137.861694 512 228.270935 C 593.340454 137.861694 721.990295 106.940247 835.532837 150.50885 C 949.075317 194.077515 1024.017456 303.12146 1024 424.736084 L 1024 424.736084 C 1024 560.24939 958.511597 682.474426 853.333313 766.069397 Z M 512 770.038391 C 561.907593 769.9823 611.484985 761.94281 658.852722 746.224426 L 541.684082 649.777954 C 531.13092 640.878296 521.212097 631.252563 512 620.970947 C 502.787781 631.251221 492.868958 640.87561 482.315887 649.773926 L 365.147278 746.224426 C 412.515015 761.94281 462.092407 769.9823 512 770.038391 Z M 293.705414 242.162415 C 192.872818 242.162415 111.131783 323.903442 111.131783 424.736084 C 111.131783 532.672852 167.93605 631.306152 257.984497 694.627563 L 410.882019 564.643066 C 427.039856 551.0979 440.73584 534.862671 451.365662 516.653931 C 431.655518 456.927673 431.655518 392.449097 451.365662 332.722839 C 418.668365 276.634827 358.628387 242.147644 293.705414 242.162415 Z M 730.294556 242.162415 C 665.368713 242.144836 605.325073 276.632385 572.626343 332.722839 C 592.336487 392.449097 592.336487 456.927673 572.626343 516.653931 C 583.256165 534.862671 596.952148 551.0979 613.110107 564.643066 L 766.015503 694.627563 C 856.063965 631.306152 912.868225 532.672852 912.868225 424.736084 C 912.868225 323.903442 831.127197 242.162415 730.294556 242.162415 Z"/>
</svg>
